<?xml version="1.0" encoding="UTF-8"?>
<!DOCTYPE svg PUBLIC "-//W3C//DTD SVG 1.1//EN" "http://www.w3.org/Graphics/SVG/1.1/DTD/svg11.dtd">
<svg xmlns="http://www.w3.org/2000/svg" version="1.1" width="259px" height="256px" style="shape-rendering:geometricPrecision; text-rendering:geometricPrecision; image-rendering:optimizeQuality; fill-rule:evenodd; clip-rule:evenodd" xmlns:xlink="http://www.w3.org/1999/xlink">
<g><path style="opacity:1" fill="#f7f3d4" d="M 63.5,-0.5 C 108.167,-0.5 152.833,-0.5 197.5,-0.5C 206.241,0.953094 214.908,3.11976 223.5,6C 225.53,7.9313 227.863,9.4313 230.5,10.5C 231.711,11.7202 231.711,12.8869 230.5,14C 235.06,14.1773 238.726,16.344 241.5,20.5C 241.291,21.086 240.957,21.586 240.5,22C 242.151,23.9435 244.151,25.4435 246.5,26.5C 248.329,30.8282 250.662,34.8282 253.5,38.5C 254.425,44.8432 256.092,50.8432 258.5,56.5C 258.5,101.5 258.5,146.5 258.5,191.5C 257.161,217.308 245.161,236.808 222.5,250C 215.349,251.65 208.349,253.484 201.5,255.5C 153.167,255.5 104.833,255.5 56.5,255.5C 50.6389,254.001 44.6389,252.501 38.5,251C 33.4785,246.817 28.1451,242.984 22.5,239.5C 17.2101,234.812 12.7101,229.479 9,223.5C 8.10795,217.722 6.10795,212.389 3,207.5C 1.4193,157.847 1.08597,108.18 2,58.5C 3.23404,50.3363 5.23404,42.3363 8,34.5C 9.79718,33.0013 11.6305,31.5013 13.5,30C 13.1667,29.6667 12.8333,29.3333 12.5,29C 14.2786,24.8882 17.1119,21.7215 21,19.5C 21.3563,16.2712 23.1897,14.7712 26.5,15C 33.9974,7.20735 43.1641,2.37402 54,0.5C 54.5613,1.02186 55.228,1.3552 56,1.5C 58.6691,0.983936 61.1691,0.317269 63.5,-0.5 Z"/></g>
<g><path style="opacity:0.963" fill="#f7f5e3" d="M 197.5,-0.5 C 201.5,-0.5 205.5,-0.5 209.5,-0.5C 235.508,6.17475 251.841,22.5081 258.5,48.5C 258.5,51.1667 258.5,53.8333 258.5,56.5C 256.092,50.8432 254.425,44.8432 253.5,38.5C 250.662,34.8282 248.329,30.8282 246.5,26.5C 244.151,25.4435 242.151,23.9435 240.5,22C 240.957,21.586 241.291,21.086 241.5,20.5C 238.726,16.344 235.06,14.1773 230.5,14C 231.711,12.8869 231.711,11.7202 230.5,10.5C 227.863,9.4313 225.53,7.9313 223.5,6C 214.908,3.11976 206.241,0.953094 197.5,-0.5 Z"/></g>
<g><path style="opacity:1" fill="#e0f8cc" d="M 131.5,55.5 C 131.5,55.8333 131.5,56.1667 131.5,56.5C 127.833,56.5 124.167,56.5 120.5,56.5C 112.833,56.5 105.167,56.5 97.5,56.5C 90.825,56.3337 84.1583,56.5004 77.5,57C 74.8171,61.9638 72.8171,67.1305 71.5,72.5C 70.8333,73.5 70.1667,74.5 69.5,75.5C 69.3379,73.4727 69.5045,71.4727 70,69.5C 72.0178,65.2376 73.8511,60.9042 75.5,56.5C 94.1548,55.5004 112.821,55.1671 131.5,55.5 Z"/></g>
<g><path style="opacity:1" fill="#ecfcbe" d="M 131.5,56.5 C 131.5,56.1667 131.5,55.8333 131.5,55.5C 147.837,55.3334 164.17,55.5001 180.5,56C 181.252,56.6708 181.586,57.5041 181.5,58.5C 181.167,58.5 180.833,58.5 180.5,58.5C 180.5,57.8333 180.167,57.5 179.5,57.5C 169.013,56.5056 158.346,56.1722 147.5,56.5C 142.167,56.5 136.833,56.5 131.5,56.5 Z"/></g>
<g><path style="opacity:1" fill="#267935" d="M 97.5,57.5 C 98.9311,58.0819 100.264,58.9152 101.5,60C 101.167,60.3333 100.833,60.6667 100.5,61C 105.351,61.1745 110.018,61.6745 114.5,62.5C 105.5,62.5 96.5,62.5 87.5,62.5C 84.6417,61.834 81.6417,61.1674 78.5,60.5C 78.8333,59.8333 79.1667,59.1667 79.5,58.5C 85.4632,57.5041 91.4632,57.1707 97.5,57.5 Z"/></g>
<g><path style="opacity:1" fill="#5a9d34" d="M 120.5,56.5 C 124.167,56.5 127.833,56.5 131.5,56.5C 136.833,56.5 142.167,56.5 147.5,56.5C 148.952,57.3019 150.618,57.8019 152.5,58C 149.997,58.1294 147.997,59.1294 146.5,61C 149.036,61.1862 151.369,61.6862 153.5,62.5C 150.5,62.5 147.5,62.5 144.5,62.5C 140.167,62.5 135.833,62.5 131.5,62.5C 127.018,61.6745 122.351,61.1745 117.5,61C 118.386,59.3853 119.386,57.8853 120.5,56.5 Z"/></g>
<g><path style="opacity:1" fill="#76b135" d="M 147.5,56.5 C 158.346,56.1722 169.013,56.5056 179.5,57.5C 175.753,57.3924 172.086,57.8924 168.5,59C 169.833,59.6667 169.833,60.3333 168.5,61C 169.737,61.2321 170.737,61.7321 171.5,62.5C 165.5,62.5 159.5,62.5 153.5,62.5C 151.369,61.6862 149.036,61.1862 146.5,61C 147.997,59.1294 149.997,58.1294 152.5,58C 150.618,57.8019 148.952,57.3019 147.5,56.5 Z"/></g>
<g><path style="opacity:0.725" fill="#f6f4df" d="M 51.5,-0.5 C 55.5,-0.5 59.5,-0.5 63.5,-0.5C 61.1691,0.317269 58.6691,0.983936 56,1.5C 55.228,1.3552 54.5613,1.02186 54,0.5C 43.1641,2.37402 33.9974,7.20735 26.5,15C 23.1897,14.7712 21.3563,16.2712 21,19.5C 17.1119,21.7215 14.2786,24.8882 12.5,29C 12.8333,29.3333 13.1667,29.6667 13.5,30C 11.6305,31.5013 9.79718,33.0013 8,34.5C 5.23404,42.3363 3.23404,50.3363 2,58.5C 1.08597,108.18 1.4193,157.847 3,207.5C 6.10795,212.389 8.10795,217.722 9,223.5C 12.7101,229.479 17.2101,234.812 22.5,239.5C 28.1451,242.984 33.4785,246.817 38.5,251C 44.6389,252.501 50.6389,254.001 56.5,255.5C 53.1667,255.5 49.8333,255.5 46.5,255.5C 23.4496,248.281 8.61625,232.947 2,209.5C 0.374874,158.189 0.0415408,106.856 1,55.5C 5.04083,25.2927 21.8742,6.62604 51.5,-0.5 Z"/></g>
<g><path style="opacity:1" fill="#3d8735" d="M 97.5,57.5 C 97.5,57.1667 97.5,56.8333 97.5,56.5C 105.167,56.5 112.833,56.5 120.5,56.5C 119.386,57.8853 118.386,59.3853 117.5,61C 122.351,61.1745 127.018,61.6745 131.5,62.5C 125.833,62.5 120.167,62.5 114.5,62.5C 110.018,61.6745 105.351,61.1745 100.5,61C 100.833,60.6667 101.167,60.3333 101.5,60C 100.264,58.9152 98.9311,58.0819 97.5,57.5 Z"/></g>
<g><path style="opacity:1" fill="#e5f2b1" d="M 181.5,58.5 C 183.461,65.0869 184.128,72.0869 183.5,79.5C 183.167,79.5 182.833,79.5 182.5,79.5C 182.5,77.1667 182.5,74.8333 182.5,72.5C 182.331,67.8189 181.998,63.1522 181.5,58.5 Z"/></g>
<g><path style="opacity:1" fill="#bedfa7" d="M 87.5,62.5 C 96.5,62.5 105.5,62.5 114.5,62.5C 120.167,62.5 125.833,62.5 131.5,62.5C 135.833,62.5 140.167,62.5 144.5,62.5C 144.5,62.8333 144.5,63.1667 144.5,63.5C 123.091,63.1785 101.758,63.5118 80.5,64.5C 82.2789,62.6565 84.6122,61.9898 87.5,62.5 Z"/></g>
<g><path style="opacity:1" fill="#cfea9b" d="M 144.5,63.5 C 144.5,63.1667 144.5,62.8333 144.5,62.5C 147.5,62.5 150.5,62.5 153.5,62.5C 159.5,62.5 165.5,62.5 171.5,62.5C 173.552,63.0527 173.885,64.0527 172.5,65.5C 163.56,63.5278 154.227,62.8611 144.5,63.5 Z"/></g>
<g><path style="opacity:1" fill="#ebf6ca" d="M 144.5,63.5 C 154.227,62.8611 163.56,63.5278 172.5,65.5C 171.499,68.8376 170.499,72.1709 169.5,75.5C 168.895,78.3053 167.562,80.6387 165.5,82.5C 135.5,82.5 105.5,82.5 75.5,82.5C 75.5,81.5 75.5,80.5 75.5,79.5C 76.5,77.5 77.5,75.5 78.5,73.5C 78.7556,70.4021 79.4222,67.4021 80.5,64.5C 101.758,63.5118 123.091,63.1785 144.5,63.5 Z"/></g>
<g><path style="opacity:1" fill="#f7f3d4" d="M 78.5,73.5 C 80.255,71.2388 81.4216,68.5722 82,65.5C 82.5613,64.9781 83.228,64.6448 84,64.5C 112.431,64.5476 140.931,64.5476 169.5,64.5C 170.381,70.8872 168.381,76.0539 163.5,80C 135.165,80.4942 106.832,80.9942 78.5,81.5C 78.5,78.8333 78.5,76.1667 78.5,73.5 Z"/></g>
<g><path style="opacity:1" fill="#b0d165" d="M 180.5,58.5 C 180.833,58.5 181.167,58.5 181.5,58.5C 181.998,63.1522 182.331,67.8189 182.5,72.5C 181.732,71.7375 181.232,70.7375 181,69.5C 180.501,65.8484 180.335,62.1817 180.5,58.5 Z"/></g>
<g><path style="opacity:1" fill="#528960" d="M 71.5,72.5 C 70.0916,77.7345 69.0916,83.0679 68.5,88.5C 67.5318,86.3926 67.1984,84.0593 67.5,81.5C 68.7384,79.7857 69.405,77.7857 69.5,75.5C 70.1667,74.5 70.8333,73.5 71.5,72.5 Z"/></g>
<g><path style="opacity:1" fill="#1f6d3a" d="M 97.5,56.5 C 97.5,56.8333 97.5,57.1667 97.5,57.5C 91.4632,57.1707 85.4632,57.5041 79.5,58.5C 79.1667,59.1667 78.8333,59.8333 78.5,60.5C 81.6417,61.1674 84.6417,61.834 87.5,62.5C 84.6122,61.9898 82.2789,62.6565 80.5,64.5C 79.4222,67.4021 78.7556,70.4021 78.5,73.5C 77.5,75.5 76.5,77.5 75.5,79.5C 74.5655,80.5676 74.2322,81.901 74.5,83.5C 76.8333,83.5 79.1667,83.5 81.5,83.5C 78.992,85.2371 75.992,86.0704 72.5,86C 71.4019,86.7697 71.4019,87.603 72.5,88.5C 71.5,88.5 70.5,88.5 69.5,88.5C 69.1667,88.5 68.8333,88.5 68.5,88.5C 69.0916,83.0679 70.0916,77.7345 71.5,72.5C 72.8171,67.1305 74.8171,61.9638 77.5,57C 84.1583,56.5004 90.825,56.3337 97.5,56.5 Z"/></g>
<g><path style="opacity:1" fill="#96bc7e" d="M 75.5,79.5 C 75.5,80.5 75.5,81.5 75.5,82.5C 105.5,82.5 135.5,82.5 165.5,82.5C 160.695,83.4872 155.695,83.8205 150.5,83.5C 143.167,83.5 135.833,83.5 128.5,83.5C 120.167,83.5 111.833,83.5 103.5,83.5C 96.1667,83.5 88.8333,83.5 81.5,83.5C 79.1667,83.5 76.8333,83.5 74.5,83.5C 74.2322,81.901 74.5655,80.5676 75.5,79.5 Z"/></g>
<g><path style="opacity:1" fill="#509732" d="M 128.5,83.5 C 135.833,83.5 143.167,83.5 150.5,83.5C 149.391,84.29 148.058,84.79 146.5,85C 147.337,86.0113 147.67,87.1779 147.5,88.5C 136.5,88.5 125.5,88.5 114.5,88.5C 112.922,86.6824 113.422,85.6824 116,85.5C 120.335,84.9916 124.501,84.3249 128.5,83.5 Z"/></g>
<g><path style="opacity:1" fill="#83b74b" d="M 169.5,75.5 C 169.929,79.4587 168.929,82.9587 166.5,86C 167.167,86.1667 167.833,86.3333 168.5,86.5C 170.184,85.4728 171.851,84.4728 173.5,83.5C 173.667,94.1719 173.5,104.839 173,115.5C 172.819,118.695 172.319,121.695 171.5,124.5C 172.305,112.174 172.472,99.8403 172,87.5C 170.933,88.1905 169.766,88.6905 168.5,89C 157.839,89.4998 147.172,89.6665 136.5,89.5C 117.833,89.5 99.1667,89.5 80.5,89.5C 86.979,88.5093 93.6457,88.176 100.5,88.5C 105.167,88.5 109.833,88.5 114.5,88.5C 125.5,88.5 136.5,88.5 147.5,88.5C 147.67,87.1779 147.337,86.0113 146.5,85C 148.058,84.79 149.391,84.29 150.5,83.5C 155.695,83.8205 160.695,83.4872 165.5,82.5C 167.562,80.6387 168.895,78.3053 169.5,75.5 Z"/></g>
<g><path style="opacity:1" fill="#86c12b" d="M 179.5,57.5 C 180.167,57.5 180.5,57.8333 180.5,58.5C 180.335,62.1817 180.501,65.8484 181,69.5C 181.232,70.7375 181.732,71.7375 182.5,72.5C 182.5,74.8333 182.5,77.1667 182.5,79.5C 182.5,82.1667 182.5,84.8333 182.5,87.5C 183.328,97.8177 183.995,108.151 184.5,118.5C 184.975,121.082 184.308,123.082 182.5,124.5C 183.292,116.497 182.125,108.831 179,101.5C 178.617,102.056 178.117,102.389 177.5,102.5C 176.669,96.8832 175.836,91.2165 175,85.5C 174.722,84.5842 174.222,83.9175 173.5,83.5C 171.851,84.4728 170.184,85.4728 168.5,86.5C 167.833,86.3333 167.167,86.1667 166.5,86C 168.929,82.9587 169.929,79.4587 169.5,75.5C 170.499,72.1709 171.499,68.8376 172.5,65.5C 173.885,64.0527 173.552,63.0527 171.5,62.5C 170.737,61.7321 169.737,61.2321 168.5,61C 169.833,60.3333 169.833,59.6667 168.5,59C 172.086,57.8924 175.753,57.3924 179.5,57.5 Z"/></g>
<g><path style="opacity:1" fill="#3b8434" d="M 103.5,83.5 C 111.833,83.5 120.167,83.5 128.5,83.5C 124.501,84.3249 120.335,84.9916 116,85.5C 113.422,85.6824 112.922,86.6824 114.5,88.5C 109.833,88.5 105.167,88.5 100.5,88.5C 99.5707,87.6851 98.5707,86.8518 97.5,86C 99.5018,84.9808 101.502,84.1475 103.5,83.5 Z"/></g>
<g><path style="opacity:1" fill="#d7eebe" d="M 80.5,89.5 C 99.1667,89.5 117.833,89.5 136.5,89.5C 136.5,89.8333 136.5,90.1667 136.5,90.5C 118.167,90.5 99.8333,90.5 81.5,90.5C 81.1667,95.8333 80.8333,101.167 80.5,106.5C 80.1667,106.5 79.8333,106.5 79.5,106.5C 79.5324,100.811 79.8658,95.1448 80.5,89.5 Z"/></g>
<g><path style="opacity:1" fill="#1b7137" d="M 81.5,83.5 C 88.8333,83.5 96.1667,83.5 103.5,83.5C 101.502,84.1475 99.5018,84.9808 97.5,86C 98.5707,86.8518 99.5707,87.6851 100.5,88.5C 93.6457,88.176 86.979,88.5093 80.5,89.5C 79.8658,95.1448 79.5324,100.811 79.5,106.5C 79.5,107.5 79.5,108.5 79.5,109.5C 78.4625,110.93 77.7959,112.597 77.5,114.5C 76.5416,114.953 75.7083,115.619 75,116.5C 74.5017,113.183 74.335,109.85 74.5,106.5C 75.12,100.074 74.4533,94.0738 72.5,88.5C 71.4019,87.603 71.4019,86.7697 72.5,86C 75.992,86.0704 78.992,85.2371 81.5,83.5 Z"/></g>
<g><path style="opacity:1" fill="#f5f5d2" d="M 136.5,90.5 C 148.167,90.5 159.833,90.5 171.5,90.5C 169.941,110.132 168.941,129.799 168.5,149.5C 167.395,161.159 166.395,172.826 165.5,184.5C 165.968,171.451 165.968,158.451 165.5,145.5C 166.007,139.68 167.007,134.013 168.5,128.5C 168.059,121.613 167.725,114.779 167.5,108C 169.14,103.219 170.14,98.2193 170.5,93C 169.57,92.0093 168.404,91.5093 167,91.5C 140.023,92.3405 112.856,92.6738 85.5,92.5C 85.5,97.8333 85.5,103.167 85.5,108.5C 84.5,108.5 83.5,108.5 82.5,108.5C 82.666,113.844 82.4994,119.177 82,124.5C 81.6174,125.056 81.1174,125.389 80.5,125.5C 80.5,119.167 80.5,112.833 80.5,106.5C 80.8333,101.167 81.1667,95.8333 81.5,90.5C 99.8333,90.5 118.167,90.5 136.5,90.5 Z"/></g>
<g><path style="opacity:1" fill="#f7f3d4" d="M 165.5,184.5 C 164.539,186.265 164.205,188.265 164.5,190.5C 135.167,190.5 105.833,190.5 76.5,190.5C 77.3361,168.8 78.6695,147.134 80.5,125.5C 81.1174,125.389 81.6174,125.056 82,124.5C 82.4994,119.177 82.666,113.844 82.5,108.5C 83.5,108.5 84.5,108.5 85.5,108.5C 85.5,103.167 85.5,97.8333 85.5,92.5C 112.856,92.6738 140.023,92.3405 167,91.5C 168.404,91.5093 169.57,92.0093 170.5,93C 170.14,98.2193 169.14,103.219 167.5,108C 167.725,114.779 168.059,121.613 168.5,128.5C 167.007,134.013 166.007,139.68 165.5,145.5C 165.968,158.451 165.968,171.451 165.5,184.5 Z"/></g>
<g><path style="opacity:1" fill="#e3f2b1" d="M 171.5,124.5 C 171.5,124.833 171.5,125.167 171.5,125.5C 170.5,133.5 169.5,141.5 168.5,149.5C 168.941,129.799 169.941,110.132 171.5,90.5C 159.833,90.5 148.167,90.5 136.5,90.5C 136.5,90.1667 136.5,89.8333 136.5,89.5C 147.172,89.6665 157.839,89.4998 168.5,89C 169.766,88.6905 170.933,88.1905 172,87.5C 172.472,99.8403 172.305,112.174 171.5,124.5 Z"/></g>
<g><path style="opacity:1" fill="#b3d569" d="M 182.5,79.5 C 182.833,79.5 183.167,79.5 183.5,79.5C 184.194,84.8049 184.528,90.1383 184.5,95.5C 183.833,92.8333 183.167,90.1667 182.5,87.5C 182.5,84.8333 182.5,82.1667 182.5,79.5 Z"/></g>
<g><path style="opacity:1" fill="#f0f5bd" d="M 183.5,79.5 C 185.528,82.5614 186.528,86.0614 186.5,90C 187.559,100.813 188.226,111.646 188.5,122.5C 187.5,117.833 186.5,113.167 185.5,108.5C 185.706,104.102 185.373,99.7685 184.5,95.5C 184.528,90.1383 184.194,84.8049 183.5,79.5 Z"/></g>
<g><path style="opacity:1" fill="#68a174" d="M 69.5,88.5 C 70.5,88.5 71.5,88.5 72.5,88.5C 74.4533,94.0738 75.12,100.074 74.5,106.5C 73.8333,109.5 73.1667,112.5 72.5,115.5C 72.464,106.815 72.7974,98.1487 73.5,89.5C 71.901,89.7678 70.5676,89.4345 69.5,88.5 Z"/></g>
<g><path style="opacity:1" fill="#a0ca4f" d="M 182.5,124.5 C 183.741,135.785 184.408,147.118 184.5,158.5C 182.367,142.028 180.7,125.361 179.5,108.5C 178.824,109.602 178.158,110.602 177.5,111.5C 177.5,108.5 177.5,105.5 177.5,102.5C 178.117,102.389 178.617,102.056 179,101.5C 182.125,108.831 183.292,116.497 182.5,124.5 Z"/></g>
<g><path style="opacity:1" fill="#528e60" d="M 79.5,109.5 C 79.5,111.5 79.5,113.5 79.5,115.5C 78.8333,120.5 78.1667,125.5 77.5,130.5C 77.5,125.167 77.5,119.833 77.5,114.5C 77.7959,112.597 78.4625,110.93 79.5,109.5 Z"/></g>
<g><path style="opacity:1" fill="#9bc446" d="M 182.5,87.5 C 183.167,90.1667 183.833,92.8333 184.5,95.5C 185.373,99.7685 185.706,104.102 185.5,108.5C 186.249,117.493 186.916,126.493 187.5,135.5C 186.202,129.879 185.202,124.212 184.5,118.5C 183.995,108.151 183.328,97.8177 182.5,87.5 Z"/></g>
<g><path style="opacity:1" fill="#81bc2f" d="M 173.5,83.5 C 174.222,83.9175 174.722,84.5842 175,85.5C 175.836,91.2165 176.669,96.8832 177.5,102.5C 177.5,105.5 177.5,108.5 177.5,111.5C 177.5,113.833 177.5,116.167 177.5,118.5C 175.027,138.931 173.027,159.597 171.5,180.5C 170.088,186.069 172.088,189.402 177.5,190.5C 175.226,191.968 173.226,193.802 171.5,196C 169.618,196.198 167.952,196.698 166.5,197.5C 165.5,197.5 164.5,197.5 163.5,197.5C 160.972,196.834 158.306,196.168 155.5,195.5C 159.313,194.833 162.979,194.166 166.5,193.5C 166.5,192.833 166.833,192.5 167.5,192.5C 170.11,170.394 171.444,148.06 171.5,125.5C 171.5,125.167 171.5,124.833 171.5,124.5C 172.319,121.695 172.819,118.695 173,115.5C 173.5,104.839 173.667,94.1719 173.5,83.5 Z"/></g>
<g><path style="opacity:1" fill="#cae9c3" d="M 79.5,115.5 C 79.9352,123.743 79.2685,131.743 77.5,139.5C 77.5,136.833 77.5,134.167 77.5,131.5C 77.5,131.167 77.5,130.833 77.5,130.5C 78.1667,125.5 78.8333,120.5 79.5,115.5 Z"/></g>
<g><path style="opacity:1" fill="#f0f8bd" d="M 188.5,124.5 C 190.363,133.601 191.363,142.934 191.5,152.5C 189.345,143.431 188.345,134.098 188.5,124.5 Z"/></g>
<g><path style="opacity:1" fill="#578f63" d="M 77.5,131.5 C 77.5,134.167 77.5,136.833 77.5,139.5C 77.2511,147.35 76.5844,155.017 75.5,162.5C 75.3933,151.966 76.0599,141.633 77.5,131.5 Z"/></g>
<g><path style="opacity:1" fill="#e9f4d3" d="M 67.5,81.5 C 67.1984,84.0593 67.5318,86.3926 68.5,88.5C 68.8333,88.5 69.1667,88.5 69.5,88.5C 70.5676,89.4345 71.901,89.7678 73.5,89.5C 72.7974,98.1487 72.464,106.815 72.5,115.5C 72.5,118.167 72.5,120.833 72.5,123.5C 69.7865,148.276 68.1198,173.276 67.5,198.5C 66.6918,192.165 66.0252,185.665 65.5,179C 65.4537,177.272 65.9537,175.772 67,174.5C 67.393,161.995 67.893,149.495 68.5,137C 68.4805,133.582 68.1472,130.249 67.5,127C 68.2266,125.601 68.7266,124.101 69,122.5C 70.0704,111.847 70.9037,101.18 71.5,90.5C 69.1432,90.6633 66.8098,90.4966 64.5,90C 64.838,86.7456 65.838,83.9123 67.5,81.5 Z"/></g>
<g><path style="opacity:1" fill="#e8f7b3" d="M 184.5,158.5 C 184.5,160.167 184.5,161.833 184.5,163.5C 184.413,168.537 184.746,173.537 185.5,178.5C 183.833,179.833 182.167,181.167 180.5,182.5C 178.571,184.148 176.571,185.815 174.5,187.5C 174.167,184.5 173.833,181.5 173.5,178.5C 175.497,158.542 176.83,138.542 177.5,118.5C 177.5,116.167 177.5,113.833 177.5,111.5C 178.158,110.602 178.824,109.602 179.5,108.5C 180.7,125.361 182.367,142.028 184.5,158.5 Z"/></g>
<g><path style="opacity:1" fill="#1c6c3b" d="M 74.5,106.5 C 74.335,109.85 74.5017,113.183 75,116.5C 75.7083,115.619 76.5416,114.953 77.5,114.5C 77.5,119.833 77.5,125.167 77.5,130.5C 77.5,130.833 77.5,131.167 77.5,131.5C 76.0599,141.633 75.3933,151.966 75.5,162.5C 75.5,167.5 75.5,172.5 75.5,177.5C 74.5128,182.305 74.1795,187.305 74.5,192.5C 77.6248,193.479 80.9581,193.813 84.5,193.5C 82.1663,194.124 79.8329,194.957 77.5,196C 83.9527,196.988 90.286,197.821 96.5,198.5C 87.1667,198.5 77.8333,198.5 68.5,198.5C 69.5749,173.485 70.9082,148.485 72.5,123.5C 72.5,120.833 72.5,118.167 72.5,115.5C 73.1667,112.5 73.8333,109.5 74.5,106.5 Z"/></g>
<g><path style="opacity:1" fill="#c2de7b" d="M 185.5,108.5 C 186.5,113.167 187.5,117.833 188.5,122.5C 188.5,123.167 188.5,123.833 188.5,124.5C 188.345,134.098 189.345,143.431 191.5,152.5C 191.5,156.167 191.5,159.833 191.5,163.5C 189.78,154.359 188.447,145.026 187.5,135.5C 186.916,126.493 186.249,117.493 185.5,108.5 Z"/></g>
<g><path style="opacity:1" fill="#93c734" d="M 184.5,118.5 C 185.202,124.212 186.202,129.879 187.5,135.5C 188.447,145.026 189.78,154.359 191.5,163.5C 191.5,164.5 191.5,165.5 191.5,166.5C 191.821,172.026 191.488,177.36 190.5,182.5C 187.481,184.676 184.315,186.676 181,188.5C 180.308,187.975 179.808,187.308 179.5,186.5C 181.934,184.079 183.934,181.412 185.5,178.5C 186.716,173.434 186.383,168.434 184.5,163.5C 184.5,161.833 184.5,160.167 184.5,158.5C 184.408,147.118 183.741,135.785 182.5,124.5C 184.308,123.082 184.975,121.082 184.5,118.5 Z"/></g>
<g><path style="opacity:1" fill="#f6f4d2" d="M 180.5,182.5 C 178.833,182.5 177.167,182.5 175.5,182.5C 175.805,164.428 176.971,146.428 179,128.5C 180.689,142.684 182.189,156.851 183.5,171C 183.28,175.215 182.28,179.049 180.5,182.5 Z"/></g>
<g><path style="opacity:1" fill="#71a47b" d="M 72.5,123.5 C 70.9082,148.485 69.5749,173.485 68.5,198.5C 68.1667,198.5 67.8333,198.5 67.5,198.5C 68.1198,173.276 69.7865,148.276 72.5,123.5 Z"/></g>
<g><path style="opacity:1" fill="#c0dd78" d="M 184.5,163.5 C 186.383,168.434 186.716,173.434 185.5,178.5C 184.746,173.537 184.413,168.537 184.5,163.5 Z"/></g>
<g><path style="opacity:1" fill="#8db947" d="M 171.5,125.5 C 171.444,148.06 170.11,170.394 167.5,192.5C 167.803,178.166 168.136,163.832 168.5,149.5C 169.5,141.5 170.5,133.5 171.5,125.5 Z"/></g>
<g><path style="opacity:1" fill="#e5f3b1" d="M 191.5,166.5 C 192.931,166.881 193.764,167.881 194,169.5C 194.867,173.956 194.534,178.289 193,182.5C 190.833,184.667 188.667,186.833 186.5,189C 181.963,192.372 177.297,195.539 172.5,198.5C 172.5,198.167 172.5,197.833 172.5,197.5C 176.72,194.104 181.053,190.937 185.5,188C 187.373,186.296 189.04,184.463 190.5,182.5C 191.488,177.36 191.821,172.026 191.5,166.5 Z"/></g>
<g><path style="opacity:1" fill="#93c048" d="M 177.5,118.5 C 176.83,138.542 175.497,158.542 173.5,178.5C 173.833,181.5 174.167,184.5 174.5,187.5C 176.571,185.815 178.571,184.148 180.5,182.5C 182.167,181.167 183.833,179.833 185.5,178.5C 183.934,181.412 181.934,184.079 179.5,186.5C 179.808,187.308 180.308,187.975 181,188.5C 184.315,186.676 187.481,184.676 190.5,182.5C 189.04,184.463 187.373,186.296 185.5,188C 181.053,190.937 176.72,194.104 172.5,197.5C 170.5,197.5 168.5,197.5 166.5,197.5C 167.952,196.698 169.618,196.198 171.5,196C 173.226,193.802 175.226,191.968 177.5,190.5C 172.088,189.402 170.088,186.069 171.5,180.5C 173.027,159.597 175.027,138.931 177.5,118.5 Z"/></g>
<g><path style="opacity:1" fill="#eaf5d0" d="M 79.5,106.5 C 79.8333,106.5 80.1667,106.5 80.5,106.5C 80.5,112.833 80.5,119.167 80.5,125.5C 78.6695,147.134 77.3361,168.8 76.5,190.5C 105.833,190.5 135.167,190.5 164.5,190.5C 164.205,188.265 164.539,186.265 165.5,184.5C 165.5,186.833 165.5,189.167 165.5,191.5C 156.833,191.5 148.167,191.5 139.5,191.5C 118.167,191.5 96.8333,191.5 75.5,191.5C 75.5,186.833 75.5,182.167 75.5,177.5C 75.5,172.5 75.5,167.5 75.5,162.5C 76.5844,155.017 77.2511,147.35 77.5,139.5C 79.2685,131.743 79.9352,123.743 79.5,115.5C 79.5,113.5 79.5,111.5 79.5,109.5C 79.5,108.5 79.5,107.5 79.5,106.5 Z"/></g>
<g><path style="opacity:1" fill="#d1e7b7" d="M 75.5,177.5 C 75.5,182.167 75.5,186.833 75.5,191.5C 96.8333,191.5 118.167,191.5 139.5,191.5C 118.006,192.497 96.3398,192.831 74.5,192.5C 74.1795,187.305 74.5128,182.305 75.5,177.5 Z"/></g>
<g><path style="opacity:1" fill="#c3dc98" d="M 168.5,149.5 C 168.136,163.832 167.803,178.166 167.5,192.5C 166.833,192.5 166.5,192.833 166.5,193.5C 157.5,193.5 148.5,193.5 139.5,193.5C 133.5,193.5 127.5,193.5 121.5,193.5C 113.833,193.5 106.167,193.5 98.5,193.5C 93.8333,193.5 89.1667,193.5 84.5,193.5C 80.9581,193.813 77.6248,193.479 74.5,192.5C 96.3398,192.831 118.006,192.497 139.5,191.5C 148.167,191.5 156.833,191.5 165.5,191.5C 165.5,189.167 165.5,186.833 165.5,184.5C 166.395,172.826 167.395,161.159 168.5,149.5 Z"/></g>
<g><path style="opacity:1" fill="#307838" d="M 84.5,193.5 C 89.1667,193.5 93.8333,193.5 98.5,193.5C 98.67,194.822 98.3366,195.989 97.5,197C 103.157,197.499 108.824,197.666 114.5,197.5C 117.713,197.19 120.713,197.523 123.5,198.5C 114.5,198.5 105.5,198.5 96.5,198.5C 90.286,197.821 83.9527,196.988 77.5,196C 79.8329,194.957 82.1663,194.124 84.5,193.5 Z"/></g>
<g><path style="opacity:1" fill="#388533" d="M 98.5,193.5 C 106.167,193.5 113.833,193.5 121.5,193.5C 119.708,194.309 117.708,194.809 115.5,195C 114.748,195.671 114.414,196.504 114.5,197.5C 108.824,197.666 103.157,197.499 97.5,197C 98.3366,195.989 98.67,194.822 98.5,193.5 Z"/></g>
<g><path style="opacity:1" fill="#65a632" d="M 139.5,193.5 C 148.5,193.5 157.5,193.5 166.5,193.5C 162.979,194.166 159.313,194.833 155.5,195.5C 158.306,196.168 160.972,196.834 163.5,197.5C 152.828,197.667 142.161,197.5 131.5,197C 131.043,196.586 130.709,196.086 130.5,195.5C 133.642,194.833 136.642,194.166 139.5,193.5 Z"/></g>
<g><path style="opacity:1" fill="#5c983c" d="M 121.5,193.5 C 127.5,193.5 133.5,193.5 139.5,193.5C 136.642,194.166 133.642,194.833 130.5,195.5C 130.709,196.086 131.043,196.586 131.5,197C 142.161,197.5 152.828,197.667 163.5,197.5C 164.5,197.5 165.5,197.5 166.5,197.5C 168.5,197.5 170.5,197.5 172.5,197.5C 172.5,197.833 172.5,198.167 172.5,198.5C 156.167,198.5 139.833,198.5 123.5,198.5C 120.713,197.523 117.713,197.19 114.5,197.5C 114.414,196.504 114.748,195.671 115.5,195C 117.708,194.809 119.708,194.309 121.5,193.5 Z"/></g>
<g><path style="opacity:1" fill="#e6fec7" d="M 67.5,198.5 C 67.8333,198.5 68.1667,198.5 68.5,198.5C 77.8333,198.5 87.1667,198.5 96.5,198.5C 105.5,198.5 114.5,198.5 123.5,198.5C 139.833,198.5 156.167,198.5 172.5,198.5C 138.473,199.177 104.306,199.843 70,200.5C 68.699,200.361 67.8656,199.695 67.5,198.5 Z"/></g>
<g><path style="opacity:1" fill="#f7f5e2" d="M 258.5,191.5 C 258.5,197.167 258.5,202.833 258.5,208.5C 255.362,217.391 251.529,226.057 247,234.5C 237.344,244.227 226.177,251.227 213.5,255.5C 209.5,255.5 205.5,255.5 201.5,255.5C 208.349,253.484 215.349,251.65 222.5,250C 245.161,236.808 257.161,217.308 258.5,191.5 Z"/></g>
</svg>
