<?xml version="1.0" standalone="no"?>
<!DOCTYPE svg PUBLIC "-//W3C//DTD SVG 20010904//EN"
 "http://www.w3.org/TR/2001/REC-SVG-20010904/DTD/svg10.dtd">
<svg version="1.0" xmlns="http://www.w3.org/2000/svg"
 width="42.000000pt" height="42.000000pt" viewBox="0 0 42.000000 42.000000"
 preserveAspectRatio="xMidYMid meet">

<g transform="translate(0.000000,42.000000) scale(0.100000,-0.100000)"
fill="#000000" stroke="none">
<path d="M320 225 l0 -195 40 0 40 0 0 195 0 195 -40 0 -40 0 0 -195z m60 0
l0 -185 -25 0 -25 0 0 185 0 185 25 0 25 0 0 -185z"/>
<path d="M127 333 c-4 -3 -7 -73 -7 -155 l0 -148 40 0 40 0 0 155 0 155 -33 0
c-19 0 -37 -3 -40 -7z m63 -153 l0 -140 -30 0 -30 0 0 140 0 140 30 0 30 0 0
-140z"/>
<path d="M220 140 l0 -110 40 0 40 0 0 110 0 110 -40 0 -40 0 0 -110z m70 0
l0 -100 -30 0 -30 0 0 100 0 100 30 0 30 0 0 -100z"/>
<path d="M20 100 l0 -70 40 0 40 0 0 70 0 70 -40 0 -40 0 0 -70z m70 -1 c0
-60 0 -60 -27 -57 -25 3 -28 7 -31 47 -4 57 2 71 33 71 24 0 25 -2 25 -61z"/>
<path d="M103 3 c59 -2 155 -2 215 0 59 1 10 3 -108 3 -118 0 -167 -2 -107 -3z"/>
</g>
</svg>
