<svg width="40" height="39" viewBox="0 0 40 39" fill="none" xmlns="http://www.w3.org/2000/svg">
<g id="Map">
<g id="Vector">
<mask id="path-1-inside-1_101_1597" fill="white">
<path d="M19.9993 38.8042L19.3135 37.8365C18.7977 37.1077 6.66602 19.9054 6.66602 13C6.66602 5.83213 12.6477 0 19.9993 0C27.351 0 33.3327 5.83213 33.3327 13C33.3327 19.9054 21.201 37.1077 20.6852 37.8365L19.9993 38.8042ZM19.9993 1.625C13.566 1.625 8.33268 6.7275 8.33268 13C8.33268 18.5144 17.4035 32.1384 19.9993 35.9239C22.5952 32.1384 31.666 18.5144 31.666 13C31.666 6.7275 26.4327 1.625 19.9993 1.625Z"/>
</mask>
<path d="M19.9993 38.8042L19.3135 37.8365C18.7977 37.1077 6.66602 19.9054 6.66602 13C6.66602 5.83213 12.6477 0 19.9993 0C27.351 0 33.3327 5.83213 33.3327 13C33.3327 19.9054 21.201 37.1077 20.6852 37.8365L19.9993 38.8042ZM19.9993 1.625C13.566 1.625 8.33268 6.7275 8.33268 13C8.33268 18.5144 17.4035 32.1384 19.9993 35.9239C22.5952 32.1384 31.666 18.5144 31.666 13C31.666 6.7275 26.4327 1.625 19.9993 1.625Z" fill="#0E0E15"/>
<path d="M19.9993 38.8042L17.5517 40.5389L19.9993 43.9924L22.447 40.5389L19.9993 38.8042ZM19.3135 37.8365L16.8648 39.5696L16.8659 39.5712L19.3135 37.8365ZM20.6852 37.8365L23.1328 39.5712L23.1339 39.5696L20.6852 37.8365ZM19.9993 35.9239L17.5252 37.6205L19.9993 41.2285L22.4735 37.6205L19.9993 35.9239ZM22.447 37.0695L21.7611 36.1018L16.8659 39.5712L17.5517 40.5389L22.447 37.0695ZM21.7622 36.1034C21.5218 35.7636 18.4155 31.3597 15.3808 26.2111C13.8612 23.6332 12.3932 20.9249 11.3142 18.4801C10.1851 15.9217 9.66602 14.0499 9.66602 13H3.66602C3.66602 15.4028 4.66343 18.2708 5.82508 20.9028C7.03686 23.6483 8.63402 26.5809 10.2119 29.2579C13.3719 34.619 16.5894 39.1806 16.8648 39.5696L21.7622 36.1034ZM9.66602 13C9.66602 7.56013 14.2325 3 19.9993 3V-3C11.0629 -3 3.66602 4.10412 3.66602 13H9.66602ZM19.9993 3C25.7662 3 30.3327 7.56013 30.3327 13H36.3327C36.3327 4.10412 28.9358 -3 19.9993 -3V3ZM30.3327 13C30.3327 14.0499 29.8136 15.9217 28.6845 18.4801C27.6055 20.9249 26.1375 23.6332 24.6179 26.2111C21.5832 31.3597 18.4769 35.7636 18.2365 36.1034L23.1339 39.5696C23.4093 39.1806 26.6268 34.619 29.7868 29.2579C31.3647 26.5809 32.9618 23.6483 34.1736 20.9028C35.3353 18.2708 36.3327 15.4028 36.3327 13H30.3327ZM18.2376 36.1018L17.5517 37.0695L22.447 40.5389L23.1328 39.5712L18.2376 36.1018ZM19.9993 -1.375C11.9812 -1.375 5.33268 4.9995 5.33268 13H11.3327C11.3327 8.4555 15.1508 4.625 19.9993 4.625V-1.375ZM5.33268 13C5.33268 15.0213 6.11495 17.3814 7.02647 19.542C7.98095 21.8045 9.25827 24.2555 10.5833 26.5908C13.2371 31.2679 16.2088 35.7009 17.5252 37.6205L22.4735 34.2272C21.194 32.3614 18.3324 28.0897 15.8018 23.6298C14.5347 21.3966 13.3821 19.1711 12.5546 17.2098C11.6843 15.1467 11.3327 13.7359 11.3327 13H5.33268ZM22.4735 37.6205C23.7899 35.7009 26.7616 31.2679 29.4154 26.5908C30.7404 24.2555 32.0177 21.8045 32.9722 19.542C33.8837 17.3814 34.666 15.0213 34.666 13H28.666C28.666 13.7359 28.3144 15.1467 27.444 17.2098C26.6166 19.1711 25.464 21.3966 24.1969 23.6298C21.6663 28.0897 18.8047 32.3614 17.5252 34.2272L22.4735 37.6205ZM34.666 13C34.666 4.9995 28.0175 -1.375 19.9993 -1.375V4.625C24.8479 4.625 28.666 8.4555 28.666 13H34.666Z" fill="black" mask="url(#path-1-inside-1_101_1597)"/>
</g>
<g id="Vector_2">
<mask id="path-3-inside-2_101_1597" fill="white">
<path d="M19.9993 18.6875C16.7835 18.6875 14.166 16.1362 14.166 13C14.166 9.86375 16.7835 7.3125 19.9993 7.3125C23.2152 7.3125 25.8327 9.86375 25.8327 13C25.8327 16.1362 23.2152 18.6875 19.9993 18.6875ZM19.9993 8.9375C17.7018 8.9375 15.8327 10.7599 15.8327 13C15.8327 15.2401 17.7018 17.0625 19.9993 17.0625C22.2968 17.0625 24.166 15.2401 24.166 13C24.166 10.7599 22.2968 8.9375 19.9993 8.9375Z"/>
</mask>
<path d="M19.9993 18.6875C16.7835 18.6875 14.166 16.1362 14.166 13C14.166 9.86375 16.7835 7.3125 19.9993 7.3125C23.2152 7.3125 25.8327 9.86375 25.8327 13C25.8327 16.1362 23.2152 18.6875 19.9993 18.6875ZM19.9993 8.9375C17.7018 8.9375 15.8327 10.7599 15.8327 13C15.8327 15.2401 17.7018 17.0625 19.9993 17.0625C22.2968 17.0625 24.166 15.2401 24.166 13C24.166 10.7599 22.2968 8.9375 19.9993 8.9375Z" fill="#0E0E15"/>
<path d="M19.9993 15.6875C18.368 15.6875 17.166 14.408 17.166 13H11.166C11.166 17.8645 15.199 21.6875 19.9993 21.6875V15.6875ZM17.166 13C17.166 11.592 18.368 10.3125 19.9993 10.3125V4.3125C15.199 4.3125 11.166 8.13547 11.166 13H17.166ZM19.9993 10.3125C21.6307 10.3125 22.8327 11.592 22.8327 13H28.8327C28.8327 8.13547 24.7997 4.3125 19.9993 4.3125V10.3125ZM22.8327 13C22.8327 14.408 21.6307 15.6875 19.9993 15.6875V21.6875C24.7997 21.6875 28.8327 17.8645 28.8327 13H22.8327ZM19.9993 5.9375C16.117 5.9375 12.8327 9.03194 12.8327 13H18.8327C18.8327 12.4879 19.2867 11.9375 19.9993 11.9375V5.9375ZM12.8327 13C12.8327 16.9681 16.117 20.0625 19.9993 20.0625V14.0625C19.2867 14.0625 18.8327 13.5121 18.8327 13H12.8327ZM19.9993 20.0625C23.8816 20.0625 27.166 16.9681 27.166 13H21.166C21.166 13.5121 20.712 14.0625 19.9993 14.0625V20.0625ZM27.166 13C27.166 9.03194 23.8816 5.9375 19.9993 5.9375V11.9375C20.712 11.9375 21.166 12.4879 21.166 13H27.166Z" fill="black" mask="url(#path-3-inside-2_101_1597)"/>
</g>
</g>
</svg>
