<svg width="13" height="14" viewBox="0 0 13 14" fill="none" xmlns="http://www.w3.org/2000/svg">
<g id="image">
<path id="Vector" d="M10.2917 2.125H2.70833C2.11002 2.125 1.625 2.61002 1.625 3.20833V10.7917C1.625 11.39 2.11002 11.875 2.70833 11.875H10.2917C10.89 11.875 11.375 11.39 11.375 10.7917V3.20833C11.375 2.61002 10.89 2.125 10.2917 2.125Z" stroke="white" stroke-linecap="round" stroke-linejoin="round"/>
<path id="Vector_2" d="M4.60352 5.9165C5.05225 5.9165 5.41602 5.55274 5.41602 5.104C5.41602 4.65527 5.05225 4.2915 4.60352 4.2915C4.15478 4.2915 3.79102 4.65527 3.79102 5.104C3.79102 5.55274 4.15478 5.9165 4.60352 5.9165Z" stroke="white" stroke-width="2" stroke-linecap="round" stroke-linejoin="round"/>
<path id="Vector_3" d="M11.3757 8.62484L8.66732 5.9165L2.70898 11.8748" stroke="white" stroke-width="2" stroke-linecap="round" stroke-linejoin="round"/>
</g>
</svg>
