<svg width="30" height="27" viewBox="0 0 30 27" fill="none" xmlns="http://www.w3.org/2000/svg">
<g id="&#240;&#159;&#166;&#134; icon &#34;shop&#34;">
<path id="Vector" d="M2.14648 9.33203V23.2187C2.14648 24.7527 3.42617 25.9961 5.00475 25.9961H25.0126C26.5913 25.9961 27.8709 24.7527 27.8709 23.2187V9.33203" stroke="black" stroke-width="1.5"/>
<path id="Vector_2" d="M27.1363 1H21.4316L22.1462 7.94335C22.1462 7.94335 23.5753 9.33202 25.719 9.33202C27.2582 9.33202 28.3062 8.61609 28.775 8.21233C28.9617 8.05142 29.0301 7.80575 28.989 7.56648L27.9821 1.69622C27.9132 1.29447 27.5555 1 27.1363 1Z" stroke="black" stroke-width="1.5"/>
<path id="Vector_3" d="M21.4311 1L22.1457 7.94335C22.1457 7.94335 20.7165 9.33202 18.5728 9.33202C16.4291 9.33202 15 7.94335 15 7.94335V1H21.4311Z" stroke="black" stroke-width="1.5"/>
<path id="Vector_4" d="M14.9992 1V7.94335C14.9992 7.94335 13.5701 9.33202 11.4264 9.33202C9.28265 9.33202 7.85352 7.94335 7.85352 7.94335L8.56808 1H14.9992Z" stroke="black" stroke-width="1.5"/>
<path id="Vector_5" d="M8.5689 1H2.86419C2.44502 1 2.08729 1.29447 2.01838 1.69622L1.01148 7.56649C0.970453 7.80575 1.03881 8.05142 1.2256 8.21233C1.69424 8.61609 2.74225 9.33202 4.28147 9.33202C6.42517 9.33202 7.85434 7.94335 7.85434 7.94335L8.5689 1Z" stroke="black" stroke-width="1.5"/>
</g>
</svg>
