<svg width="35" height="38" viewBox="0 0 35 38" fill="none" xmlns="http://www.w3.org/2000/svg">
<g id="Map">
<g id="Vector">
<mask id="path-1-inside-1_101_1585" fill="white">
<path d="M17.5007 37.8092L16.9005 36.8663C16.4492 36.1562 5.83398 19.395 5.83398 12.6667C5.83398 5.68258 11.0679 0 17.5007 0C23.9334 0 29.1673 5.68258 29.1673 12.6667C29.1673 19.395 18.5521 36.1562 18.1008 36.8663L17.5007 37.8092ZM17.5007 1.58333C11.8715 1.58333 7.29232 6.555 7.29232 12.6667C7.29232 18.0397 15.2293 31.3144 17.5007 35.0028C19.772 31.3144 27.709 18.0397 27.709 12.6667C27.709 6.555 23.1298 1.58333 17.5007 1.58333Z"/>
</mask>
<path d="M17.5007 37.8092L16.9005 36.8663C16.4492 36.1562 5.83398 19.395 5.83398 12.6667C5.83398 5.68258 11.0679 0 17.5007 0C23.9334 0 29.1673 5.68258 29.1673 12.6667C29.1673 19.395 18.5521 36.1562 18.1008 36.8663L17.5007 37.8092ZM17.5007 1.58333C11.8715 1.58333 7.29232 6.555 7.29232 12.6667C7.29232 18.0397 15.2293 31.3144 17.5007 35.0028C19.772 31.3144 27.709 18.0397 27.709 12.6667C27.709 6.555 23.1298 1.58333 17.5007 1.58333Z" fill="#B79B70"/>
<path d="M17.5007 37.8092L14.9698 39.42L17.5007 43.3965L20.0315 39.42L17.5007 37.8092ZM16.9005 36.8663L14.3687 38.4756L14.3697 38.4771L16.9005 36.8663ZM18.1008 36.8663L20.6316 38.4771L20.6326 38.4756L18.1008 36.8663ZM17.5007 35.0028L14.9462 36.5758L17.5007 40.724L20.0551 36.5758L17.5007 35.0028ZM20.0315 36.1984L19.4314 35.2555L14.3697 38.4771L14.9698 39.42L20.0315 36.1984ZM19.4324 35.2571C19.2226 34.927 16.5049 30.6364 13.8495 25.6199C12.5201 23.1084 11.2344 20.4675 10.2886 18.0811C9.30316 15.5949 8.83398 13.7396 8.83398 12.6667H2.83398C2.83398 14.9579 3.69171 17.7209 4.71074 20.2919C5.76936 22.9629 7.16571 25.8182 8.54655 28.4268C11.3116 33.6505 14.1272 38.0956 14.3687 38.4756L19.4324 35.2571ZM8.83398 12.6667C8.83398 7.10239 12.9523 3 17.5007 3V-3C9.18358 -3 2.83398 4.26278 2.83398 12.6667H8.83398ZM17.5007 3C22.049 3 26.1673 7.10239 26.1673 12.6667H32.1673C32.1673 4.26278 25.8177 -3 17.5007 -3V3ZM26.1673 12.6667C26.1673 13.7396 25.6981 15.5949 24.7127 18.0811C23.7669 20.4675 22.4812 23.1084 21.1518 25.6199C18.4964 30.6364 15.7787 34.927 15.5689 35.2571L20.6326 38.4756C20.8741 38.0956 23.6897 33.6505 26.4548 28.4268C27.8356 25.8182 29.2319 22.9629 30.2906 20.2919C31.3096 17.7209 32.1673 14.9579 32.1673 12.6667H26.1673ZM15.5699 35.2555L14.9698 36.1984L20.0315 39.42L20.6316 38.4771L15.5699 35.2555ZM17.5007 -1.41667C9.98712 -1.41667 4.29232 5.13519 4.29232 12.6667H10.2923C10.2923 7.97481 13.7558 4.58333 17.5007 4.58333V-1.41667ZM4.29232 12.6667C4.29232 14.5884 4.96313 16.8575 5.76255 18.9676C6.5959 21.1673 7.71222 23.5529 8.87173 25.8285C11.1935 30.3851 13.7938 34.7046 14.9462 36.5758L20.0551 33.4297C18.9361 31.6125 16.4322 27.4505 14.2177 23.1044C13.1091 20.9287 12.0992 18.7577 11.3734 16.8419C10.6136 14.8366 10.2923 13.4314 10.2923 12.6667H4.29232ZM20.0551 36.5758C21.2075 34.7046 23.8078 30.3851 26.1296 25.8285C27.2891 23.5529 28.4054 21.1673 29.2388 18.9676C30.0382 16.8575 30.709 14.5884 30.709 12.6667H24.709C24.709 13.4314 24.3877 14.8366 23.6279 16.8419C22.9021 18.7577 21.8922 20.9287 20.7836 23.1044C18.5691 27.4505 16.0652 31.6125 14.9462 33.4297L20.0551 36.5758ZM30.709 12.6667C30.709 5.13519 25.0142 -1.41667 17.5007 -1.41667V4.58333C21.2455 4.58333 24.709 7.97481 24.709 12.6667H30.709Z" fill="#B79B70" mask="url(#path-1-inside-1_101_1585)"/>
</g>
<g id="Vector_2">
<mask id="path-3-inside-2_101_1585" fill="white">
<path d="M17.5007 18.2083C14.6868 18.2083 12.3965 15.7225 12.3965 12.6667C12.3965 9.61083 14.6868 7.125 17.5007 7.125C20.3145 7.125 22.6048 9.61083 22.6048 12.6667C22.6048 15.7225 20.3145 18.2083 17.5007 18.2083ZM17.5007 8.70833C15.4903 8.70833 13.8548 10.484 13.8548 12.6667C13.8548 14.8493 15.4903 16.625 17.5007 16.625C19.511 16.625 21.1465 14.8493 21.1465 12.6667C21.1465 10.484 19.511 8.70833 17.5007 8.70833Z"/>
</mask>
<path d="M17.5007 18.2083C14.6868 18.2083 12.3965 15.7225 12.3965 12.6667C12.3965 9.61083 14.6868 7.125 17.5007 7.125C20.3145 7.125 22.6048 9.61083 22.6048 12.6667C22.6048 15.7225 20.3145 18.2083 17.5007 18.2083ZM17.5007 8.70833C15.4903 8.70833 13.8548 10.484 13.8548 12.6667C13.8548 14.8493 15.4903 16.625 17.5007 16.625C19.511 16.625 21.1465 14.8493 21.1465 12.6667C21.1465 10.484 19.511 8.70833 17.5007 8.70833Z" fill="#B79B70"/>
<path d="M17.5007 15.2083C16.5709 15.2083 15.3965 14.3024 15.3965 12.6667H9.39648C9.39648 17.1426 12.8027 21.2083 17.5007 21.2083V15.2083ZM15.3965 12.6667C15.3965 11.0309 16.5709 10.125 17.5007 10.125V4.125C12.8027 4.125 9.39648 8.19074 9.39648 12.6667H15.3965ZM17.5007 10.125C18.4304 10.125 19.6048 11.0309 19.6048 12.6667H25.6048C25.6048 8.19074 22.1986 4.125 17.5007 4.125V10.125ZM19.6048 12.6667C19.6048 14.3024 18.4304 15.2083 17.5007 15.2083V21.2083C22.1986 21.2083 25.6048 17.1426 25.6048 12.6667H19.6048ZM17.5007 5.70833C13.606 5.70833 10.8548 9.06424 10.8548 12.6667H16.8548C16.8548 12.328 16.9808 12.064 17.1305 11.9014C17.2767 11.7427 17.4105 11.7083 17.5007 11.7083V5.70833ZM10.8548 12.6667C10.8548 16.2691 13.606 19.625 17.5007 19.625V13.625C17.4105 13.625 17.2767 13.5906 17.1305 13.4319C16.9808 13.2693 16.8548 13.0054 16.8548 12.6667H10.8548ZM17.5007 19.625C21.3953 19.625 24.1465 16.2691 24.1465 12.6667H18.1465C18.1465 13.0054 18.0205 13.2693 17.8708 13.4319C17.7246 13.5906 17.5908 13.625 17.5007 13.625V19.625ZM24.1465 12.6667C24.1465 9.06424 21.3953 5.70833 17.5007 5.70833V11.7083C17.5908 11.7083 17.7246 11.7427 17.8708 11.9014C18.0205 12.064 18.1465 12.328 18.1465 12.6667H24.1465Z" fill="#B79B70" mask="url(#path-3-inside-2_101_1585)"/>
</g>
</g>
</svg>
